<svg xmlns="http://www.w3.org/2000/svg" width="269" height="340" viewBox="0 0 269 340">
<g>
<path d="M 91.52 228.56 C84.49,231.49 79.99,229.95 70.08,221.24 C52.76,205.99 31.20,170.70 21.68,142.00 C12.62,114.69 9.79,85.50 14.46,67.50 C16.77,58.63 23.17,46.34 29.19,39.25 C38.76,27.98 49.96,20.88 66.09,15.84 C76.66,12.54 95.20,12.56 106.00,15.89 C122.42,20.95 134.05,28.79 145.49,42.50 C149.50,47.30 155.85,60.83 158.16,69.50 C161.20,80.89 161.17,102.30 158.10,117.00 C155.14,131.15 148.33,151.22 143.85,159.00 C143.38,159.82 142.74,161.18 142.44,162.00 C139.25,170.64 123.55,196.58 118.22,202.00 C116.87,203.38 114.50,206.30 112.96,208.50 C108.78,214.45 95.47,226.90 91.52,228.56 ZM 77.25 206.35 C80.84,208.79 83.66,209.93 86.17,209.96 C98.98,210.10 128.15,171.22 138.88,139.72 C145.15,121.31 147.00,111.68 147.22,96.40 C147.64,66.75 130.24,42.06 103.23,33.97 C93.56,31.08 74.68,31.46 65.76,34.73 C50.62,40.29 38.42,51.24 31.50,65.50 C26.57,75.65 24.99,82.72 25.03,94.43 C25.08,107.29 28.39,127.12 31.88,135.50 C32.34,136.60 34.66,142.45 37.05,148.50 C46.37,172.16 63.77,197.21 77.25,206.35 ZM 89.91 317.05 C87.69,318.23 84.70,318.27 83.45,317.14 C81.45,315.31 72.70,314.00 62.56,314.00 L 52.00 314.00 L 52.00 293.57 C52.00,274.37 52.11,273.10 53.90,272.53 C54.95,272.20 56.07,270.85 56.40,269.52 C56.89,267.57 57.87,266.99 61.56,266.44 C67.89,265.49 75.61,266.70 81.23,269.52 L 85.99 271.91 L 91.16 269.52 C99.45,265.68 118.00,264.86 118.00,268.34 C118.00,269.01 118.91,270.33 120.02,271.29 C121.94,272.93 122.03,274.01 121.77,293.26 L 121.50 313.50 L 109.50 314.08 C97.39,314.67 93.16,315.31 89.91,317.05 ZM 80.50 309.78 C82.70,310.95 84.84,311.93 85.25,311.96 C85.66,311.98 86.00,307.73 86.00,302.50 C86.00,296.83 86.40,293.00 87.00,293.00 C87.60,293.00 88.00,296.87 88.00,302.61 C88.00,311.36 88.16,312.15 89.75,311.50 C97.80,308.24 103.13,307.00 109.11,307.00 L 115.92 307.00 L 116.50 269.05 L 112.20 268.40 C109.83,268.05 105.57,268.06 102.74,268.44 C97.47,269.14 88.00,272.68 88.00,273.95 C88.00,274.34 85.41,273.40 82.25,271.86 C75.31,268.49 69.81,267.54 62.49,268.46 L 57.00 269.14 L 57.00 286.38 C57.00,298.65 57.36,304.08 58.25,305.21 C59.16,306.37 61.79,306.92 68.00,307.23 C74.14,307.53 77.61,308.24 80.50,309.78 ZM 206.18 127.10 C206.49,130.38 206.26,131.00 204.67,131.00 C203.36,131.00 202.97,130.52 203.39,129.42 C203.73,128.55 204.02,126.41 204.05,124.67 C204.10,121.88 204.72,121.19 209.30,118.85 C213.84,116.54 214.47,115.85 214.29,113.41 C214.11,111.09 212.27,108.95 210.00,108.44 C209.73,108.38 208.60,107.99 207.50,107.57 C206.40,107.15 204.26,106.35 202.75,105.78 C198.96,104.37 194.23,98.73 193.48,94.73 C193.13,92.90 193.00,89.63 193.18,87.46 C193.48,83.74 193.71,83.48 197.00,83.18 C198.93,83.00 201.54,81.88 202.81,80.70 C204.79,78.85 206.56,78.49 215.56,78.16 C228.22,77.69 234.05,78.46 236.73,80.97 C237.85,82.01 240.28,83.00 242.13,83.18 L 245.50 83.50 L 245.63 90.38 C245.76,96.92 245.59,97.45 242.26,101.14 C239.79,103.86 237.20,105.47 233.53,106.53 C227.05,108.42 225.14,109.81 224.66,113.00 C224.36,115.01 225.09,116.04 228.39,118.25 C230.65,119.76 233.06,120.99 233.75,121.00 C234.56,121.00 235.00,122.55 235.00,125.42 C235.00,128.01 235.51,130.04 236.25,130.34 C236.94,130.62 235.95,130.88 234.06,130.92 C231.00,130.99 230.81,130.86 232.39,129.70 C233.58,128.84 234.06,127.41 233.84,125.45 C233.54,122.84 233.15,122.53 230.50,122.77 C228.85,122.92 224.52,123.30 220.88,123.63 C216.67,124.00 213.47,123.79 212.09,123.05 C210.90,122.41 209.00,122.18 207.87,122.54 C206.16,123.08 205.87,123.86 206.18,127.10 ZM 214.50 108.84 C225.04,112.55 233.92,105.00 235.58,90.92 L 236.22 85.50 L 204.00 85.50 L 204.01 88.50 C204.03,93.43 206.64,101.75 209.15,104.87 C210.44,106.47 212.85,108.26 214.50,108.84 ZM 78.00 313.46 C85.97,315.29 86.85,315.22 83.52,313.02 C79.71,310.51 68.72,308.00 61.55,308.00 L 56.00 308.00 L 56.00 291.50 C56.00,281.17 55.63,275.00 55.00,275.00 C54.37,275.00 54.00,281.83 54.00,293.50 L 54.00 312.00 L 63.25 312.10 C68.34,312.15 74.97,312.76 78.00,313.46 ZM 89.00 314.52 C89.00,315.30 90.40,315.09 95.59,313.51 C98.48,312.63 104.51,312.02 110.25,312.01 L 120.00 312.00 L 120.00 292.50 C120.00,280.17 119.63,273.00 119.00,273.00 C118.37,273.00 118.00,279.63 118.00,290.89 L 118.00 308.77 L 107.75 309.19 C99.67,309.52 96.60,310.08 93.25,311.82 C90.91,313.04 89.00,314.26 89.00,314.52 ZM 209.65 83.95 C218.06,85.36 232.75,84.59 234.71,82.63 C237.13,80.20 221.99,78.40 211.64,79.89 C201.84,81.30 201.23,82.54 209.65,83.95 ZM 233.00 104.03 C233.00,105.65 235.58,105.12 238.39,102.91 C242.22,99.90 245.17,93.57 244.81,89.18 C244.53,85.83 244.20,85.47 241.25,85.19 C238.84,84.95 238.00,85.28 238.00,86.44 C238.00,87.33 238.85,88.00 240.00,88.00 C241.56,88.00 242.00,88.67 242.00,91.05 C242.00,95.33 239.49,99.70 235.98,101.51 C234.34,102.36 233.00,103.49 233.00,104.03 ZM 200.64 101.99 C206.24,106.91 208.19,105.67 202.73,100.66 C200.13,98.27 197.99,95.68 197.99,94.91 C197.98,94.13 197.70,92.50 197.37,91.27 C196.90,89.51 197.33,88.83 199.39,88.04 C203.07,86.64 202.63,85.00 198.58,85.00 C195.63,85.00 195.07,85.39 194.53,87.86 C193.66,91.83 196.47,98.33 200.64,101.99 ZM 213.08 121.91 C218.24,123.97 228.00,122.90 228.00,120.28 C228.00,119.24 227.47,119.01 226.25,119.53 C223.18,120.84 216.95,121.04 214.83,119.91 C213.39,119.14 212.47,119.13 211.72,119.88 C210.97,120.63 211.37,121.22 213.08,121.91 ZM 104.00 290.30 C100.43,290.57 96.49,291.12 95.25,291.52 C93.98,291.92 93.00,291.81 93.00,291.27 C93.00,289.74 100.22,288.00 106.57,288.00 C114.28,288.00 112.45,289.64 104.00,290.30 ZM 79.00 299.31 C82.10,300.66 82.22,300.83 80.00,300.81 C78.62,300.80 75.70,300.20 73.50,299.47 C71.30,298.75 67.95,298.12 66.05,298.08 C63.36,298.02 62.86,297.74 63.81,296.79 C65.19,295.41 73.01,296.71 79.00,299.31 ZM 105.75 283.31 C102.31,283.64 97.93,284.22 96.00,284.59 C93.53,285.07 92.79,284.95 93.50,284.19 C94.48,283.14 105.29,281.02 109.75,281.01 C110.99,281.00 112.00,281.38 112.00,281.86 C112.00,282.33 109.19,282.98 105.75,283.31 ZM 83.00 286.59 C83.00,287.36 79.48,286.82 72.08,284.91 C63.71,282.75 62.31,282.00 66.66,282.00 C69.58,282.00 83.00,285.77 83.00,286.59 ZM 216.71 117.00 C216.25,118.75 216.68,119.00 220.13,119.00 C223.76,119.00 223.99,118.84 223.00,117.00 C222.40,115.87 220.91,115.00 219.58,115.00 C218.07,115.00 217.05,115.72 216.71,117.00 ZM 236.39 96.42 C235.38,99.06 237.59,98.18 238.84,95.45 C240.42,91.98 240.30,90.00 238.50,90.00 C237.58,90.00 237.00,90.94 237.00,92.42 C237.00,93.75 236.73,95.55 236.39,96.42 ZM 200.60 95.84 C202.68,98.81 203.29,98.08 202.45,93.60 C202.06,91.52 201.19,90.00 200.39,90.00 C198.52,90.00 198.63,93.03 200.60,95.84 ZM 216.50 112.00 C216.84,112.55 218.19,113.00 219.50,113.00 C220.81,113.00 222.16,112.55 222.50,112.00 C222.87,111.40 221.66,111.00 219.50,111.00 C217.34,111.00 216.13,111.40 216.50,112.00 Z" fill="rgb(46,83,73)"/>
<path d="M 77.25 206.35 C63.77,197.21 46.37,172.16 37.05,148.50 C34.66,142.45 32.34,136.60 31.88,135.50 C28.39,127.12 25.08,107.29 25.03,94.43 C24.99,82.72 26.57,75.65 31.50,65.50 C38.42,51.24 50.62,40.29 65.76,34.73 C74.68,31.46 93.56,31.08 103.23,33.97 C130.24,42.06 147.64,66.75 147.22,96.40 C147.00,111.68 145.15,121.31 138.88,139.72 C128.15,171.22 98.98,210.10 86.17,209.96 C83.66,209.93 80.84,208.79 77.25,206.35 ZM 79.40 186.17 C85.64,190.69 88.99,189.93 97.33,182.10 C113.07,167.32 127.69,139.21 131.93,115.57 C136.61,89.51 126.65,67.05 106.00,57.11 C98.61,53.55 98.32,53.50 86.00,53.51 C74.40,53.52 73.09,53.72 67.88,56.27 C49.15,65.43 40.00,80.12 40.00,101.00 C40.00,131.20 58.37,170.91 79.40,186.17 ZM 202.00 273.72 C195.68,273.88 187.07,274.13 182.87,274.26 C174.19,274.54 168.03,272.78 162.20,268.36 C156.77,264.24 155.29,262.16 153.04,255.50 C151.31,250.37 151.00,246.78 150.92,230.83 C150.84,214.07 151.04,211.69 152.88,207.54 C157.06,198.08 164.31,192.06 173.97,190.01 C180.61,188.60 213.76,189.07 217.70,190.64 C220.76,191.85 230.89,200.25 230.95,201.62 C230.98,202.24 232.01,204.94 233.25,207.62 C235.33,212.14 235.49,213.92 235.50,231.50 C235.50,249.50 235.38,250.75 233.12,255.29 C230.13,261.32 223.54,268.16 217.86,271.13 C214.20,273.04 211.66,273.46 202.00,273.72 ZM 244.27 144.19 C237.66,147.44 237.46,147.47 222.55,147.56 C200.54,147.68 195.56,146.41 187.13,138.52 C178.90,130.83 177.64,126.67 177.19,105.74 C176.72,83.88 177.62,80.41 186.00,71.91 C194.24,63.56 198.15,62.49 220.00,62.55 C235.65,62.59 238.09,62.83 243.10,64.81 C249.69,67.42 255.23,72.60 258.68,79.37 C263.51,88.86 264.24,118.01 259.90,127.92 C256.67,135.29 251.58,140.59 244.27,144.19 ZM 111.46 332.06 C106.85,334.33 105.29,334.51 89.50,334.69 C80.15,334.79 70.81,334.46 68.73,333.95 C59.92,331.78 52.40,325.67 47.86,317.00 C45.60,312.70 45.50,311.59 45.50,292.00 C45.50,272.64 45.63,271.27 47.76,267.28 C51.29,260.66 55.66,256.32 61.82,253.29 C67.46,250.52 67.64,250.50 87.50,250.50 C105.84,250.50 107.87,250.68 112.00,252.63 C119.29,256.09 126.41,263.30 127.44,268.26 C127.58,268.94 128.22,270.79 128.87,272.37 C130.26,275.78 130.49,306.95 129.15,311.53 C126.49,320.63 120.46,327.63 111.46,332.06 ZM 89.91 317.05 C93.16,315.31 97.39,314.67 109.50,314.08 L 121.50 313.50 L 121.77 293.26 C122.03,274.01 121.94,272.93 120.02,271.29 C118.91,270.33 118.00,269.01 118.00,268.34 C118.00,264.86 99.45,265.68 91.16,269.52 L 85.99 271.91 L 81.23 269.52 C75.61,266.70 67.89,265.49 61.56,266.44 C57.87,266.99 56.89,267.57 56.40,269.52 C56.07,270.85 54.95,272.20 53.90,272.53 C52.11,273.10 52.00,274.37 52.00,293.57 L 52.00 314.00 L 62.56 314.00 C72.70,314.00 81.45,315.31 83.45,317.14 C84.70,318.27 87.69,318.23 89.91,317.05 ZM 208.25 130.29 C211.90,131.00 228.28,130.86 231.00,130.11 C233.05,129.53 233.50,128.79 233.50,125.95 C233.50,124.26 233.45,123.39 232.99,122.99 C233.50,123.35 233.68,124.09 233.84,125.45 C234.06,127.41 233.58,128.84 232.39,129.70 C230.81,130.86 231.00,130.99 234.06,130.92 C235.95,130.88 236.94,130.62 236.25,130.34 C235.51,130.04 235.00,128.01 235.00,125.42 C235.00,122.55 234.56,121.00 233.75,121.00 C233.06,120.99 230.65,119.76 228.39,118.25 C225.09,116.04 224.36,115.01 224.66,113.00 C225.14,109.81 227.05,108.42 233.53,106.53 C237.20,105.47 239.79,103.86 242.26,101.14 C245.59,97.45 245.76,96.92 245.63,90.38 L 245.50 83.50 L 242.13 83.18 C240.28,83.00 237.85,82.01 236.73,80.97 C234.05,78.46 228.22,77.69 215.56,78.16 C206.56,78.49 204.79,78.85 202.81,80.70 C201.54,81.88 198.93,83.00 197.00,83.18 C193.71,83.48 193.48,83.74 193.18,87.46 C193.00,89.63 193.13,92.90 193.48,94.73 C194.23,98.73 198.96,104.37 202.75,105.78 C204.26,106.35 206.40,107.15 207.50,107.57 C208.60,107.99 209.73,108.38 210.00,108.44 C212.27,108.95 214.11,111.09 214.29,113.41 C214.47,115.85 213.84,116.54 209.30,118.85 C204.72,121.19 204.10,121.88 204.05,124.67 C204.02,126.41 203.73,128.55 203.39,129.42 C202.97,130.52 203.36,131.00 204.67,131.00 C205.89,131.00 206.31,130.64 206.30,128.97 C206.61,129.75 207.20,130.09 208.25,130.29 ZM 175.59 253.95 C177.97,256.36 179.82,256.47 182.17,254.35 C183.87,252.80 184.13,252.81 185.92,254.42 C187.44,255.80 188.26,255.93 189.89,255.06 C194.04,252.84 194.17,250.68 190.54,244.93 L 187.17 239.57 L 190.83 237.11 C192.85,235.76 196.27,233.15 198.43,231.32 L 202.37 228.00 L 204.67 230.16 C205.93,231.34 207.22,233.12 207.53,234.11 C209.07,238.94 216.64,236.14 215.68,231.09 C215.34,229.32 215.88,228.09 217.60,226.74 C220.31,224.61 220.60,222.37 218.53,219.64 C217.42,218.17 217.37,217.38 218.30,215.89 C219.90,213.32 218.01,210.41 214.96,210.76 C213.61,210.92 212.14,210.22 211.30,209.01 C209.69,206.72 206.93,206.43 203.86,208.25 C202.16,209.25 201.65,209.25 201.29,208.25 C200.59,206.34 196.52,206.76 194.54,208.96 C192.83,210.85 192.86,211.09 195.38,215.39 C196.82,217.85 198.00,220.52 198.00,221.33 C198.00,222.15 195.86,224.41 193.25,226.36 C190.64,228.30 187.32,230.82 185.88,231.94 L 183.25 233.98 L 180.61 229.99 C179.16,227.80 177.27,226.00 176.42,226.00 C173.27,226.00 171.00,228.05 171.00,230.88 C171.00,232.43 170.10,234.50 169.00,235.50 C166.60,237.67 166.47,239.79 168.53,242.74 C169.76,244.50 169.83,245.30 168.85,246.87 C167.87,248.45 167.96,249.30 169.39,251.47 C170.69,253.45 171.46,253.86 172.40,253.08 C173.33,252.31 174.20,252.55 175.59,253.95 ZM 58.48 305.46 C58.40,305.38 58.32,305.30 58.25,305.21 C57.36,304.08 57.00,298.65 57.00,286.38 L 57.00 269.14 L 62.14 268.50 L 57.96 269.13 L 58.23 287.81 ZM 236.39 96.42 C236.73,95.55 237.00,93.75 237.00,92.42 C237.00,90.94 237.58,90.00 238.50,90.00 C240.30,90.00 240.42,91.98 238.84,95.45 C237.59,98.18 235.38,99.06 236.39,96.42 ZM 200.60 95.84 C198.63,93.03 198.52,90.00 200.39,90.00 C201.19,90.00 202.06,91.52 202.45,93.60 C203.29,98.08 202.68,98.81 200.60,95.84 ZM 69.85 268.22 C73.96,268.54 77.81,269.71 82.25,271.86 C83.33,272.39 84.35,272.85 85.22,273.21 ZM 66.08 282.01 C62.46,282.08 64.11,282.86 72.08,284.91 C72.20,284.95 72.32,284.98 72.44,285.01 C70.03,284.51 67.34,284.14 65.75,284.10 C60.80,283.97 60.88,282.00 65.83,282.00 C65.91,282.00 65.99,282.00 66.08,282.01 ZM 214.50 108.84 C212.85,108.26 210.44,106.47 209.15,104.87 C208.69,104.29 208.22,103.54 207.77,102.66 C208.20,103.45 208.63,104.10 209.05,104.55 C210.24,105.82 212.62,107.55 214.35,108.40 C215.54,108.99 216.63,109.40 217.69,109.63 C216.65,109.48 215.58,109.22 214.50,108.84 ZM 222.24 109.54 C223.55,109.21 224.94,108.61 226.50,107.73 C228.41,106.67 230.08,105.07 231.46,103.05 C229.09,106.58 225.90,108.84 222.24,109.54 ZM 74.30 307.83 C72.55,307.54 70.49,307.35 68.00,307.23 C65.63,307.11 63.78,306.96 62.35,306.75 L 67.50 307.08 C70.19,307.26 72.41,307.50 74.30,307.83 ZM 206.07 125.42 C206.05,123.59 206.49,123.00 207.79,122.57 C206.89,123.04 206.27,124.02 206.07,125.42 ZM 83.00 286.59 C83.00,286.20 79.87,285.11 76.31,284.10 C79.92,285.09 83.00,286.15 83.00,286.59 ZM 204.72 93.91 C204.28,91.95 204.02,90.06 204.01,88.50 C204.02,90.04 204.29,91.95 204.72,93.91 Z" fill="rgb(59,123,96)"/>
<path d="M 79.40 186.17 C58.37,170.91 40.00,131.20 40.00,101.00 C40.00,80.12 49.15,65.43 67.88,56.27 C73.09,53.72 74.40,53.52 86.00,53.51 C98.32,53.50 98.61,53.55 106.00,57.11 C126.65,67.05 136.61,89.51 131.93,115.57 C127.69,139.21 113.07,167.32 97.33,182.10 C88.99,189.93 85.64,190.69 79.40,186.17 ZM 89.65 137.00 C91.53,138.65 93.39,140.01 93.78,140.02 C94.18,140.03 97.95,138.37 102.18,136.33 C109.74,132.67 112.00,130.30 112.00,126.03 C112.00,125.00 113.35,122.80 115.00,121.15 C117.16,118.99 118.00,117.20 118.00,114.73 C118.00,112.58 118.74,110.64 120.00,109.50 C121.10,108.50 122.00,106.59 122.00,105.25 C122.00,102.69 119.11,97.00 117.81,97.00 C117.39,97.00 117.31,95.70 117.63,94.12 C118.38,90.34 116.54,87.08 112.92,85.82 C110.48,84.97 110.00,84.26 110.00,81.47 C110.00,79.07 109.27,77.57 107.37,76.07 C105.92,74.93 104.30,74.00 103.77,74.00 C103.25,74.00 101.67,73.10 100.27,72.00 C96.92,69.36 92.22,69.44 89.31,72.18 L 86.99 74.36 L 84.95 72.18 C82.45,69.49 77.90,69.34 75.61,71.88 C74.67,72.91 72.15,74.04 70.01,74.38 C65.48,75.11 63.00,77.99 63.00,82.53 C63.00,84.82 62.20,86.21 59.93,87.89 C57.40,89.76 56.91,90.76 57.15,93.55 C57.37,96.11 56.79,97.61 54.72,99.77 C51.37,103.27 51.28,105.93 54.40,109.30 C56.10,111.13 56.77,112.97 56.70,115.57 C56.62,118.43 57.22,119.79 59.35,121.63 C60.87,122.93 62.76,124.00 63.56,124.00 C64.50,124.00 65.00,125.06 65.00,127.07 C65.00,131.41 66.53,133.74 69.89,134.48 C71.49,134.83 73.58,135.99 74.55,137.06 C77.17,139.95 82.53,139.65 84.59,136.50 L 86.23 134.00 ZM 231.06 202.16 C231.00,201.92 230.96,201.74 230.95,201.62 C230.89,200.25 220.76,191.85 217.70,190.64 C215.39,189.72 203.05,189.18 191.89,189.17 C192.90,189.14 193.92,189.10 194.95,189.08 L 216.40 188.50 L 219.70 184.17 C224.66,177.67 224.29,174.20 218.06,168.95 C211.19,163.16 210.23,159.94 213.47,153.68 C214.86,151.01 216.00,148.70 216.00,148.55 C216.00,148.41 212.95,148.00 209.22,147.66 C206.16,147.37 203.50,146.96 201.12,146.36 C206.01,147.38 212.51,147.61 222.55,147.56 C226.38,147.54 229.24,147.52 231.49,147.45 C230.35,147.54 229.08,147.62 227.64,147.70 C218.91,148.19 217.01,148.57 217.45,149.74 C217.75,150.52 218.00,151.75 218.00,152.48 C218.00,154.72 222.25,158.01 228.37,160.49 C235.40,163.34 238.64,166.14 241.11,171.50 C244.73,179.33 242.91,186.54 234.89,196.18 C232.75,198.75 231.00,201.28 231.00,201.80 C231.00,201.88 231.02,202.00 231.06,202.16 ZM 202.00 273.72 C204.14,273.66 205.93,273.59 207.46,273.51 C204.52,273.69 200.57,273.82 195.00,273.98 L 176.50 274.50 L 158.60 281.83 C148.76,285.86 138.35,290.20 135.48,291.47 L 130.25 293.78 L 130.00 298.99 C130.18,288.28 129.77,274.56 128.87,272.37 C128.22,270.79 127.58,268.94 127.44,268.26 C127.38,268.01 127.32,267.75 127.23,267.49 C127.96,268.92 128.94,270.00 129.57,270.00 C131.30,270.00 152.21,262.01 153.44,260.89 C154.01,260.36 153.73,257.98 152.70,254.71 C152.33,253.53 152.03,252.25 151.79,250.68 C152.09,252.42 152.50,253.89 153.04,255.50 C155.29,262.16 156.77,264.24 162.20,268.36 C168.03,272.78 174.19,274.54 182.87,274.26 C187.07,274.13 195.68,273.88 202.00,273.72 ZM 78.00 313.46 C74.97,312.76 68.34,312.15 63.25,312.10 L 54.00 312.00 L 54.00 293.50 C54.00,281.83 54.37,275.00 55.00,275.00 C55.63,275.00 56.00,281.17 56.00,291.50 L 56.00 308.00 L 61.55 308.00 C68.72,308.00 79.71,310.51 83.52,313.02 C86.85,315.22 85.97,315.29 78.00,313.46 ZM 89.00 314.52 C89.00,314.26 90.91,313.04 93.25,311.82 C96.60,310.08 99.67,309.52 107.75,309.19 L 118.00 308.77 L 118.00 290.89 C118.00,279.63 118.37,273.00 119.00,273.00 C119.63,273.00 120.00,280.17 120.00,292.50 L 120.00 312.00 L 110.25 312.01 C104.51,312.02 98.48,312.63 95.59,313.51 C90.40,315.09 89.00,315.30 89.00,314.52 ZM 209.65 83.95 C201.23,82.54 201.84,81.30 211.64,79.89 C221.99,78.40 237.13,80.20 234.71,82.63 C232.75,84.59 218.06,85.36 209.65,83.95 ZM 230.56 122.76 C231.79,122.66 232.53,122.67 232.99,122.99 C233.45,123.39 233.50,124.26 233.50,125.95 C233.50,128.79 233.05,129.53 231.00,130.11 C229.35,130.57 222.62,130.80 216.78,130.75 C218.16,130.53 219.00,130.12 219.00,129.52 C219.00,127.99 223.11,124.78 224.63,125.12 C225.11,125.22 227.07,124.54 229.00,123.60 C229.73,123.24 230.25,122.96 230.56,122.76 ZM 88.46 118.07 C87.39,119.80 86.23,119.02 85.75,116.25 C85.50,114.74 84.97,112.79 84.60,111.92 C84.14,110.86 84.43,110.33 85.46,110.33 C86.48,110.33 87.00,111.27 87.00,113.11 C87.00,114.63 87.46,116.16 88.02,116.51 C88.58,116.86 88.77,117.56 88.46,118.07 ZM 216.50 112.00 C216.13,111.40 217.34,111.00 219.50,111.00 C221.66,111.00 222.87,111.40 222.50,112.00 C222.16,112.55 220.81,113.00 219.50,113.00 C218.19,113.00 216.84,112.55 216.50,112.00 ZM 172.40 190.38 C169.76,191.08 167.31,192.09 165.06,193.40 C166.91,192.22 168.73,191.27 170.21,190.77 C170.58,190.64 171.33,190.51 172.40,190.38 ZM 219.02 123.76 C219.62,123.73 220.24,123.68 220.88,123.63 C223.45,123.40 226.37,123.14 228.44,122.95 C225.83,123.45 222.22,123.73 219.02,123.76 ZM 160.15 197.07 C157.60,199.45 155.45,202.35 153.73,205.74 C154.80,203.62 156.11,201.41 156.98,200.29 C157.78,199.28 158.89,198.17 160.15,197.07 ZM 112.25 252.70 C113.53,253.28 114.89,254.10 116.26,255.07 C114.87,254.14 113.44,253.32 112.00,252.63 C107.87,250.68 105.84,250.50 87.50,250.50 C105.98,250.50 107.86,250.67 112.25,252.70 ZM 211.67 273.12 C214.26,272.75 215.90,272.16 217.86,271.13 C220.86,269.56 224.12,266.91 226.96,263.87 C224.12,266.90 220.87,269.56 217.86,271.15 C215.97,272.15 214.51,272.74 211.67,273.12 ZM 182.30 133.28 C178.31,127.83 177.53,121.60 177.19,105.74 C177.53,121.61 178.34,127.84 182.30,133.28 ZM 123.22 322.91 C125.23,320.45 126.85,317.70 128.06,314.69 C127.71,315.63 127.28,316.56 126.76,317.56 C125.79,319.44 124.60,321.23 123.22,322.91 ZM 244.43 144.11 C247.60,142.53 250.36,140.62 252.73,138.36 C250.39,140.62 247.69,142.50 244.66,144.00 C244.58,144.03 244.50,144.07 244.43,144.11 ZM 206.07 125.42 C206.25,124.18 206.75,123.27 207.49,122.75 C206.75,123.28 206.25,124.18 206.07,125.42 Z" fill="rgb(131,170,149)"/>
<path d="M 222.24 109.54 C220.79,109.82 219.27,109.86 217.69,109.63 C216.63,109.40 215.54,108.99 214.35,108.40 C212.62,107.55 210.24,105.82 209.05,104.55 C208.63,104.10 208.20,103.45 207.77,102.66 C206.54,100.29 205.41,97.01 204.72,93.91 L 204.71 93.85 C204.28,91.91 204.02,90.04 204.01,88.51 L 204.01 88.50 L 204.00 85.50 L 236.22 85.50 L 235.58 90.92 C235.00,95.82 233.55,99.93 231.46,103.05 C230.08,105.07 228.41,106.67 226.50,107.73 C224.94,108.61 223.55,109.21 222.24,109.54 ZM 88.46 118.07 C88.77,117.56 88.58,116.86 88.02,116.51 C87.46,116.16 87.00,114.63 87.00,113.11 C87.00,111.27 86.48,110.33 85.46,110.33 C84.43,110.33 84.14,110.86 84.60,111.92 C84.75,112.27 84.93,112.81 85.11,113.43 L 82.95 111.61 C79.47,108.69 76.00,108.67 73.06,111.55 C71.80,112.77 71.90,113.26 73.81,115.29 C75.93,117.55 76.79,121.00 75.24,121.00 C74.82,121.00 73.92,120.10 73.23,119.00 C72.55,117.90 71.09,117.00 70.00,117.00 C68.91,117.00 67.45,117.90 66.77,119.00 C65.24,121.44 64.00,121.58 64.00,119.31 C64.00,118.38 66.51,115.18 69.58,112.21 C72.44,109.44 73.74,108.06 75.31,107.55 C76.83,107.05 78.61,107.35 82.29,107.97 C82.67,108.03 83.07,108.10 83.50,108.17 C85.18,108.45 85.55,107.86 85.82,104.50 C86.45,96.52 88.00,98.51 88.00,107.30 L 88.00 116.00 L 92.31 116.00 C94.68,116.00 97.36,116.56 98.28,117.25 C100.65,119.03 105.15,127.94 104.35,129.25 C103.94,129.91 103.35,129.48 102.86,128.15 C101.75,125.14 99.02,124.26 97.45,126.40 C96.53,127.65 95.99,127.79 95.45,126.92 C95.01,126.21 95.68,124.99 97.11,123.90 C99.05,122.42 99.30,121.75 98.40,120.29 C97.16,118.28 93.98,117.54 90.40,118.44 C88.11,119.01 88.00,119.41 88.00,127.45 C88.00,133.39 88.09,135.22 89.20,136.60 L 86.23 134.00 L 84.59 136.50 C84.57,136.53 84.55,136.56 84.53,136.60 C85.20,134.86 85.64,130.97 85.84,125.04 L 86.10 117.62 C86.67,119.22 87.59,119.47 88.46,118.07 ZM 84.62 71.85 C84.74,71.96 84.85,72.07 84.95,72.18 L 86.99 74.36 L 89.31 72.18 C90.94,70.64 93.14,69.94 95.35,70.09 C93.56,70.07 91.82,70.76 90.31,72.17 C88.18,74.18 88.00,75.16 88.00,84.99 C88.00,94.31 88.25,95.89 90.04,97.81 C92.53,100.49 96.02,100.62 99.07,98.14 L 101.37 96.28 L 99.18 93.51 C96.92,90.62 96.32,88.00 97.93,88.00 C98.45,88.00 99.14,88.86 99.47,89.91 C100.63,93.56 105.37,93.56 106.53,89.91 C107.28,87.54 109.00,87.40 109.00,89.69 C109.00,90.62 106.53,93.77 103.52,96.69 C99.04,101.04 97.41,102.00 94.56,102.00 C90.02,102.00 86.00,97.90 86.00,93.26 C86.00,89.74 84.97,89.30 80.60,90.96 C78.94,91.59 77.04,91.56 75.04,90.86 C70.92,89.43 71.19,87.99 75.45,88.68 C80.67,89.53 83.59,88.41 85.00,85.00 C86.32,81.81 85.97,74.58 84.62,71.85 ZM 206.18 127.10 C206.12,126.45 206.08,125.89 206.07,125.42 C206.25,124.18 206.75,123.28 207.49,122.75 L 207.49 122.75 C207.59,122.68 207.69,122.62 207.79,122.57 C207.82,122.56 207.84,122.55 207.87,122.54 C209.00,122.18 210.90,122.41 212.09,123.05 C213.26,123.68 215.74,123.92 219.02,123.76 C222.22,123.73 225.83,123.45 228.44,122.95 C229.30,122.88 230.02,122.81 230.50,122.77 L 230.56 122.76 C230.25,122.96 229.73,123.24 229.00,123.60 C227.07,124.54 225.11,125.22 224.63,125.12 C223.11,124.78 219.00,127.99 219.00,129.52 C219.00,130.12 218.16,130.53 216.78,130.75 C213.04,130.72 209.67,130.57 208.25,130.29 C207.20,130.09 206.61,129.75 206.30,128.97 C206.30,128.47 206.25,127.85 206.18,127.10 ZM 233.00 104.03 C233.00,103.49 234.34,102.36 235.98,101.51 C239.49,99.70 242.00,95.33 242.00,91.05 C242.00,88.67 241.56,88.00 240.00,88.00 C238.85,88.00 238.00,87.33 238.00,86.44 C238.00,85.28 238.84,84.95 241.25,85.19 C244.20,85.47 244.53,85.83 244.81,89.18 C245.17,93.57 242.22,99.90 238.39,102.91 C235.58,105.12 233.00,105.65 233.00,104.03 ZM 200.64 101.99 C196.47,98.33 193.66,91.83 194.53,87.86 C195.07,85.39 195.63,85.00 198.58,85.00 C202.63,85.00 203.07,86.64 199.39,88.04 C197.33,88.83 196.90,89.51 197.37,91.27 C197.70,92.50 197.98,94.13 197.99,94.91 C197.99,95.68 200.13,98.27 202.73,100.66 C208.19,105.67 206.24,106.91 200.64,101.99 ZM 56.70 114.77 C56.62,112.58 55.92,110.94 54.40,109.30 C51.28,105.93 51.37,103.27 54.72,99.77 C55.87,98.57 56.57,97.57 56.91,96.47 C56.61,97.47 56.06,98.37 55.22,99.27 C51.16,103.59 53.32,110.71 58.32,109.46 C59.72,109.11 61.09,108.21 61.38,107.46 C62.09,105.59 67.87,102.73 69.59,103.40 C71.82,104.25 71.23,106.00 68.72,106.00 C66.71,106.00 64.72,107.36 57.70,113.52 C57.25,113.91 56.92,114.33 56.70,114.77 ZM 117.73 93.49 C117.70,93.70 117.67,93.91 117.63,94.12 C117.31,95.70 117.39,97.00 117.81,97.00 C118.49,97.00 119.62,98.58 120.53,100.44 C120.42,100.28 120.31,100.13 120.18,99.98 C118.57,97.99 118.09,97.88 115.93,99.01 C114.59,99.72 112.43,101.35 111.11,102.65 C108.73,105.00 103.00,105.95 103.00,104.00 C103.00,103.45 103.99,103.00 105.20,103.00 C106.40,103.00 108.62,101.82 110.13,100.37 C111.64,98.93 113.91,97.23 115.19,96.60 C116.59,95.90 117.42,94.77 117.73,93.49 ZM 213.08 121.91 C211.37,121.22 210.97,120.63 211.72,119.88 C212.47,119.13 213.39,119.14 214.83,119.91 C216.95,121.04 223.18,120.84 226.25,119.53 C227.47,119.01 228.00,119.24 228.00,120.28 C228.00,122.90 218.24,123.97 213.08,121.91 ZM 216.71 117.00 C217.05,115.72 218.07,115.00 219.58,115.00 C220.91,115.00 222.40,115.87 223.00,117.00 C223.99,118.84 223.76,119.00 220.13,119.00 C216.68,119.00 216.25,118.75 216.71,117.00 ZM 220.20 155.83 C218.80,154.62 218.00,153.45 218.00,152.48 C218.00,151.75 217.75,150.52 217.45,149.74 C217.01,148.57 218.91,148.19 227.64,147.70 C229.08,147.62 230.35,147.54 231.49,147.45 C231.56,147.45 231.63,147.44 231.70,147.44 C230.98,147.52 230.25,147.59 229.50,147.64 C220.23,148.32 219.04,148.90 219.02,152.76 C219.01,153.89 219.36,154.88 220.20,155.83 ZM 244.80 143.92 C247.77,142.45 250.42,140.58 252.72,138.36 L 252.73 138.36 C255.73,135.47 258.10,132.02 259.90,127.92 C256.63,135.38 251.65,140.68 244.80,143.92 ZM 61.23 123.01 C60.60,122.62 59.95,122.14 59.35,121.63 C58.05,120.50 57.32,119.56 56.96,118.34 C57.84,119.99 59.61,121.88 61.23,123.01 ZM 81.01 138.87 C78.75,139.39 76.14,138.81 74.55,137.06 C75.94,138.59 78.71,139.22 81.01,138.87 ZM 121.91 104.32 C121.97,104.66 122.00,104.97 122.00,105.25 C122.00,105.98 121.74,106.87 121.32,107.70 C121.79,106.67 121.99,105.51 121.91,104.32 ZM 79.80 70.07 C78.15,70.21 76.55,70.84 75.61,71.88 C76.67,70.71 78.20,70.11 79.80,70.07 ZM 237.89 166.46 C235.72,164.06 232.79,162.29 228.37,160.49 C228.08,160.37 227.80,160.26 227.52,160.14 C227.82,160.26 228.14,160.39 228.46,160.53 C232.82,162.30 235.72,164.07 237.89,166.46 ZM 116.59 88.51 C115.75,87.35 114.51,86.38 112.92,85.82 C114.51,86.38 115.76,87.31 116.59,88.51 ZM 92.42 139.23 C93.09,139.67 93.62,139.97 93.84,140.01 C93.82,140.02 93.80,140.02 93.78,140.02 C93.60,140.01 93.10,139.72 92.42,139.23 Z" fill="rgb(179,193,186)"/>
<path d="M 0.00 170.00 L 0.00 0.00 L 134.50 0.00 L 269.00 0.00 L 269.00 170.00 L 269.00 340.00 L 134.50 340.00 L 0.00 340.00 L 0.00 170.00 ZM 111.46 332.06 C118.25,328.72 123.66,323.59 126.76,317.56 C128.87,313.47 129.45,310.70 129.81,303.14 L 130.25 293.78 L 135.48 291.47 C138.35,290.20 148.76,285.86 158.60,281.83 L 176.50 274.50 L 195.00 273.98 C211.83,273.51 213.89,273.25 217.86,271.15 C223.56,268.14 230.14,261.30 233.12,255.29 C235.38,250.75 235.50,249.50 235.50,231.50 C235.49,213.92 235.33,212.14 233.25,207.62 C232.01,204.94 231.00,202.32 231.00,201.80 C231.00,201.28 232.75,198.75 234.89,196.18 C242.91,186.54 244.73,179.33 241.11,171.50 C238.65,166.16 235.40,163.35 228.46,160.53 C221.37,157.64 219.00,155.69 219.02,152.76 C219.04,148.90 220.23,148.32 229.50,147.64 C244.65,146.54 254.56,140.10 259.90,127.92 C264.24,118.01 263.51,88.86 258.68,79.37 C255.23,72.60 249.69,67.42 243.10,64.81 C238.09,62.83 235.65,62.59 220.00,62.55 C198.15,62.49 194.24,63.56 186.00,71.91 C177.62,80.41 176.72,83.88 177.19,105.74 C177.65,127.00 178.89,130.95 187.60,138.91 C193.66,144.45 199.30,146.74 209.22,147.66 C212.95,148.00 216.00,148.41 216.00,148.55 C216.00,148.70 214.86,151.01 213.47,153.68 C210.23,159.94 211.19,163.16 218.06,168.95 C224.29,174.20 224.66,177.67 219.70,184.17 L 216.40 188.50 L 194.95 189.08 C183.15,189.39 172.02,190.15 170.21,190.77 C166.20,192.13 159.76,196.76 156.98,200.29 C155.85,201.73 154.01,204.99 152.88,207.54 C151.04,211.69 150.84,214.07 150.93,230.78 C151.00,245.21 151.40,250.60 152.70,254.71 C153.73,257.98 154.01,260.36 153.44,260.89 C152.21,262.01 131.30,270.00 129.57,270.00 C128.84,270.00 127.65,268.56 126.92,266.80 C125.01,262.20 117.79,255.25 112.25,252.70 C107.86,250.67 105.98,250.50 87.50,250.50 C67.64,250.50 67.46,250.52 61.82,253.29 C55.66,256.32 51.29,260.66 47.76,267.28 C45.63,271.27 45.50,272.64 45.50,292.00 C45.50,311.59 45.60,312.70 47.86,317.00 C52.40,325.67 59.92,331.78 68.73,333.95 C70.81,334.46 80.15,334.79 89.50,334.69 C105.29,334.51 106.85,334.33 111.46,332.06 ZM 91.52 228.56 C95.47,226.90 108.78,214.45 112.96,208.50 C114.50,206.30 116.87,203.38 118.22,202.00 C123.55,196.58 139.25,170.64 142.44,162.00 C142.74,161.18 143.38,159.82 143.85,159.00 C148.33,151.22 155.14,131.15 158.10,117.00 C161.17,102.30 161.20,80.89 158.16,69.50 C155.85,60.83 149.50,47.30 145.49,42.50 C134.05,28.79 122.42,20.95 106.00,15.89 C95.20,12.56 76.66,12.54 66.09,15.84 C49.96,20.88 38.76,27.98 29.19,39.25 C23.17,46.34 16.77,58.63 14.46,67.50 C9.79,85.50 12.62,114.69 21.68,142.00 C31.20,170.70 52.76,205.99 70.08,221.24 C79.99,229.95 84.49,231.49 91.52,228.56 ZM 80.50 309.79 C77.66,308.28 73.88,307.50 67.50,307.08 L 58.50 306.50 L 58.23 287.81 L 57.96 269.13 L 62.56 268.44 C69.05,267.47 75.28,268.54 82.11,271.82 C85.35,273.37 88.00,274.33 88.00,273.95 C88.00,272.68 97.48,269.14 102.74,268.44 C105.57,268.06 109.83,268.05 112.20,268.40 L 116.50 269.05 L 116.21 288.02 L 115.92 307.00 L 109.11 307.00 C103.13,307.00 97.80,308.24 89.75,311.50 C88.16,312.15 88.00,311.36 88.00,302.61 C88.00,296.87 87.60,293.00 87.00,293.00 C86.40,293.00 86.00,296.83 86.00,302.50 C86.00,307.73 85.66,311.98 85.25,311.96 C84.84,311.93 82.70,310.96 80.50,309.79 ZM 79.00 299.31 C73.01,296.71 65.19,295.41 63.81,296.79 C62.86,297.74 63.36,298.02 66.05,298.08 C67.95,298.12 71.30,298.75 73.50,299.47 C75.70,300.20 78.62,300.80 80.00,300.81 C82.22,300.83 82.10,300.66 79.00,299.31 ZM 104.00 290.30 C112.45,289.64 114.28,288.00 106.57,288.00 C100.22,288.00 93.00,289.74 93.00,291.27 C93.00,291.81 93.98,291.92 95.25,291.52 C96.49,291.12 100.43,290.57 104.00,290.30 ZM 83.00 286.59 C83.00,285.65 69.35,282.00 65.83,282.00 C60.88,282.00 60.80,283.97 65.75,284.10 C67.81,284.15 71.75,284.77 74.50,285.48 C79.81,286.84 83.00,287.26 83.00,286.59 ZM 105.75 283.31 C109.19,282.98 112.00,282.33 112.00,281.86 C112.00,281.38 110.99,281.00 109.75,281.01 C105.29,281.02 94.48,283.14 93.50,284.19 C92.79,284.95 93.53,285.07 96.00,284.59 C97.93,284.22 102.31,283.64 105.75,283.31 ZM 175.59 253.95 C174.20,252.55 173.33,252.31 172.40,253.08 C171.46,253.86 170.69,253.45 169.39,251.47 C167.96,249.30 167.87,248.45 168.85,246.87 C169.83,245.30 169.76,244.50 168.53,242.74 C166.47,239.79 166.60,237.67 169.00,235.50 C170.10,234.50 171.00,232.43 171.00,230.88 C171.00,228.05 173.27,226.00 176.42,226.00 C177.27,226.00 179.16,227.80 180.61,229.99 L 183.25 233.98 L 185.88 231.94 C187.32,230.82 190.64,228.30 193.25,226.36 C195.86,224.41 198.00,222.15 198.00,221.33 C198.00,220.52 196.82,217.85 195.38,215.39 C192.86,211.09 192.83,210.85 194.54,208.96 C196.52,206.76 200.59,206.34 201.29,208.25 C201.65,209.25 202.16,209.25 203.86,208.25 C206.93,206.43 209.69,206.72 211.30,209.01 C212.14,210.22 213.61,210.92 214.96,210.76 C218.01,210.41 219.90,213.32 218.30,215.89 C217.37,217.38 217.42,218.17 218.53,219.64 C220.60,222.37 220.31,224.61 217.60,226.74 C215.88,228.09 215.34,229.32 215.68,231.09 C216.64,236.14 209.07,238.94 207.53,234.11 C207.22,233.12 205.93,231.34 204.67,230.16 L 202.37 228.00 L 198.43 231.32 C196.27,233.15 192.85,235.76 190.83,237.11 L 187.17 239.57 L 190.54 244.93 C194.17,250.68 194.04,252.84 189.89,255.06 C188.26,255.93 187.44,255.80 185.92,254.42 C184.13,252.81 183.87,252.80 182.17,254.35 C179.82,256.47 177.97,256.36 175.59,253.95 ZM 90.63 137.93 C88.16,135.98 88.00,135.34 88.00,127.45 C88.00,119.41 88.11,119.01 90.40,118.44 C93.98,117.54 97.16,118.28 98.40,120.29 C99.30,121.75 99.05,122.42 97.11,123.90 C95.68,124.99 95.01,126.21 95.45,126.92 C95.99,127.79 96.53,127.65 97.45,126.40 C99.02,124.26 101.75,125.14 102.86,128.15 C103.35,129.48 103.94,129.91 104.35,129.25 C105.15,127.94 100.65,119.03 98.28,117.25 C97.36,116.56 94.68,116.00 92.31,116.00 L 88.00 116.00 L 88.00 107.30 C88.00,98.51 86.45,96.52 85.82,104.50 C85.55,107.86 85.18,108.45 83.50,108.17 C74.73,106.72 75.48,106.50 69.58,112.21 C66.51,115.18 64.00,118.38 64.00,119.31 C64.00,121.58 65.24,121.44 66.77,119.00 C67.45,117.90 68.91,117.00 70.00,117.00 C71.09,117.00 72.55,117.90 73.23,119.00 C73.92,120.10 74.82,121.00 75.24,121.00 C76.79,121.00 75.93,117.55 73.81,115.29 C71.90,113.26 71.80,112.77 73.06,111.55 C76.00,108.67 79.47,108.69 82.95,111.61 L 86.21 114.35 L 85.84 125.04 C85.60,132.10 85.02,136.27 84.12,137.36 C82.23,139.63 76.72,139.45 74.55,137.06 C73.58,135.99 71.49,134.83 69.89,134.48 C66.53,133.74 65.00,131.41 65.00,127.07 C65.00,125.06 64.50,124.00 63.56,124.00 C61.54,124.00 57.29,119.94 56.53,117.30 C56.11,115.83 56.50,114.58 57.70,113.52 C64.72,107.36 66.71,106.00 68.72,106.00 C71.23,106.00 71.82,104.25 69.59,103.40 C67.87,102.73 62.09,105.59 61.38,107.46 C61.09,108.21 59.72,109.11 58.32,109.46 C53.32,110.71 51.16,103.59 55.22,99.27 C56.79,97.59 57.36,95.92 57.15,93.53 C56.91,90.76 57.40,89.76 59.93,87.89 C62.20,86.21 63.00,84.82 63.00,82.53 C63.00,77.99 65.48,75.11 70.01,74.38 C72.15,74.04 74.67,72.91 75.61,71.88 C77.40,69.91 81.54,69.42 83.89,70.91 C85.81,72.13 86.54,81.29 85.00,85.00 C83.59,88.41 80.67,89.53 75.45,88.68 C71.19,87.99 70.92,89.43 75.04,90.86 C77.04,91.56 78.94,91.59 80.60,90.96 C84.97,89.30 86.00,89.74 86.00,93.26 C86.00,97.90 90.02,102.00 94.56,102.00 C97.41,102.00 99.04,101.04 103.52,96.69 C106.53,93.77 109.00,90.62 109.00,89.69 C109.00,87.40 107.28,87.54 106.53,89.91 C105.37,93.56 100.63,93.56 99.47,89.91 C99.14,88.86 98.45,88.00 97.93,88.00 C96.32,88.00 96.92,90.62 99.18,93.51 L 101.37 96.28 L 99.07 98.14 C96.02,100.62 92.53,100.49 90.04,97.81 C88.25,95.89 88.00,94.31 88.00,84.99 C88.00,75.16 88.18,74.18 90.31,72.17 C93.20,69.46 96.96,69.40 100.27,72.00 C101.67,73.10 103.25,74.00 103.77,74.00 C104.30,74.00 105.92,74.93 107.37,76.07 C109.27,77.57 110.00,79.07 110.00,81.47 C110.00,84.26 110.48,84.97 112.92,85.82 C118.27,87.69 119.68,94.37 115.19,96.60 C113.91,97.23 111.64,98.93 110.13,100.37 C108.62,101.82 106.40,103.00 105.20,103.00 C103.99,103.00 103.00,103.45 103.00,104.00 C103.00,105.95 108.73,105.00 111.11,102.65 C112.43,101.35 114.59,99.72 115.93,99.01 C118.09,97.88 118.57,97.99 120.18,99.98 C122.57,102.93 122.49,107.24 120.00,109.50 C118.74,110.64 118.00,112.58 118.00,114.73 C118.00,117.20 117.16,118.99 115.00,121.15 C113.35,122.80 112.00,125.00 112.00,126.03 C112.00,130.30 109.74,132.67 102.18,136.33 C97.95,138.37 94.22,140.03 93.88,140.02 C93.55,140.01 92.08,139.07 90.63,137.93 Z" fill="rgb(253,254,253)"/>
</g>
</svg>